<?xml version="1.0" encoding="utf-8"?>
<svg version="1.1" id="apple" preserveAspectRatio="none" xmlns="http://www.w3.org/2000/svg" xmlns:xlink="http://www.w3.org/1999/xlink" x="0px" y="0px"
	 width="281.9px" height="335.2px" viewBox="0 0 281.9 335.2" enable-background="new 0 0 281.9 335.2" xml:space="preserve">
<g id="apple_1">
	<path opacity="0.95" fill="#FFFFFF" d="M81.3,77.4c9.8,0,21.7,2,35.6,6.1s23.2,6.1,27.8,6.1c5.9,0,15.5-2.3,28.9-6.9
		c13.4-4.6,24.9-6.9,34.8-6.9c16.1,0,30.4,4.3,43,13c7.1,5,14.1,11.7,21,20.2c-10.5,8.9-18.1,16.8-23,23.8
		c-8.8,12.6-13.2,26.4-13.2,41.6c0,16.6,4.6,31.6,13.9,45s19.9,21.8,31.8,25.3c-5,16.1-13.2,32.9-24.7,50.5
		c-17.4,26.3-34.7,39.5-51.8,39.5c-6.8,0-16.2-2.2-28.2-6.5c-12-4.3-22.1-6.5-30.3-6.5c-8.2,0-17.8,2.3-28.7,6.8
		c-10.9,4.5-19.8,6.8-26.6,6.8c-20.6,0-40.7-17.4-60.5-52.2C11.3,248.5,1.4,214.8,1.4,181.7c0-30.8,7.6-55.8,22.7-75.2
		S58.3,77.4,81.3,77.4L81.3,77.4z"/>
	<path opacity="0.95" fill="#FFFFFF" d="M204.9,0.1c0.5,1.7,0.9,3.2,1,4.5c0.1,1.3,0.2,2.6,0.2,3.9c0,8.4-2,17.5-5.9,27.5
		c-3.9,9.9-10.1,19.2-18.7,27.7c-7.3,7.2-14.6,12-21.8,14.5c-4.6,1.4-11.5,2.6-20.8,3.3c0.3-19.9,5.5-37.1,15.6-51.6
		C164.7,15.3,181.5,5.4,204.9,0.1L204.9,0.1z"/>
</g>
</svg>
