<?xml version="1.0" encoding="utf-8"?>
<svg version="1.1" id="btn_close" preserveAspectRatio="none" xmlns="http://www.w3.org/2000/svg" xmlns:xlink="http://www.w3.org/1999/xlink" x="0px" y="0px"
	 width="208px" height="208px" viewBox="0 0 208 208" enable-background="new 0 0 208 208" xml:space="preserve">
<g>
	<g id="_x38__1_">
		<g>
			<path fill="none" stroke="#000000" stroke-width="7" stroke-miterlimit="10" d="M149.3,104l45.3-45.3c12.5-12.5,12.5-32.8,0-45.3
				c-12.5-12.5-32.8-12.5-45.3,0L104,58.7L58.7,13.4c-12.5-12.5-32.8-12.5-45.3,0s-12.5,32.8,0,45.3L58.7,104l-45.3,45.3
				c-12.5,12.5-12.5,32.8,0,45.3c12.5,12.5,32.8,12.5,45.3,0l45.3-45.3l45.3,45.3c12.5,12.5,32.8,12.5,45.3,0
				c12.5-12.5,12.5-32.8,0-45.3L149.3,104z M183.3,183.3c-6.3,6.3-16.4,6.3-22.7,0L104,126.7l-56.6,56.6c-6.3,6.3-16.4,6.3-22.7,0
				c-6.3-6.3-6.3-16.4,0-22.7L81.3,104L24.7,47.4c-6.3-6.3-6.3-16.4,0-22.7s16.4-6.3,22.7,0L104,81.3l56.6-56.6
				c6.3-6.3,16.4-6.3,22.7,0c6.3,6.3,6.3,16.4,0,22.7L126.7,104l56.6,56.6C189.5,166.9,189.5,177,183.3,183.3z"/>
		</g>
	</g>
</g>
<g opacity="0.6">
	<g id="_x38__2_">
		<g>
			<path fill="#565656" d="M149.3,104l45.3-45.3c12.5-12.5,12.5-32.8,0-45.3c-12.5-12.5-32.8-12.5-45.3,0L104,58.7L58.7,13.4
				c-12.5-12.5-32.8-12.5-45.3,0s-12.5,32.8,0,45.3L58.7,104l-45.3,45.3c-12.5,12.5-12.5,32.8,0,45.3c12.5,12.5,32.8,12.5,45.3,0
				l45.3-45.3l45.3,45.3c12.5,12.5,32.8,12.5,45.3,0c12.5-12.5,12.5-32.8,0-45.3L149.3,104z M183.3,183.3c-6.3,6.3-16.4,6.3-22.7,0
				L104,126.7l-56.6,56.6c-6.3,6.3-16.4,6.3-22.7,0c-6.3-6.3-6.3-16.4,0-22.7L81.3,104L24.7,47.4c-6.3-6.3-6.3-16.4,0-22.7
				s16.4-6.3,22.7,0L104,81.3l56.6-56.6c6.3-6.3,16.4-6.3,22.7,0c6.3,6.3,6.3,16.4,0,22.7L126.7,104l56.6,56.6
				C189.5,166.9,189.5,177,183.3,183.3z"/>
		</g>
	</g>
</g>
</svg>
