<?xml version="1.0" encoding="utf-8"?>
<svg version="1.1" id="btn_zoom_no_gradient" preserveAspectRatio="none" xmlns="http://www.w3.org/2000/svg" xmlns:xlink="http://www.w3.org/1999/xlink"
	 x="0px" y="0px" width="548px" height="567.3px" viewBox="0 0 548 567.3" enable-background="new 0 0 548 567.3"
	 xml:space="preserve">
<g>
	<path opacity="0.8" fill="#535353" stroke="#000000" stroke-width="14" stroke-miterlimit="10" enable-background="new    " d="
		M224.9,441.4c57.9,0,112.4-22.6,153.3-63.5c41-41,63.5-95.4,63.5-153.3C441.7,105,344.5,7.7,224.9,7.7S8,105,8,224.6
		S105.3,441.4,224.9,441.4z M78.3,224.6C78.3,143.7,144,78,224.9,78c80.8,0,146.6,65.8,146.6,146.6c0,39.1-15.3,75.9-43,103.6
		s-64.5,43-103.6,43C144,371.2,78.3,305.4,78.3,224.6z"/>
	<path opacity="0.8" fill="#535353" stroke="#000000" stroke-width="14" stroke-miterlimit="10" enable-background="new    " d="
		M230.9,292c-35.6,0-64.6-29-64.6-64.6c0-16.9-13.7-30.6-30.6-30.6S105,210.4,105,227.3c0,69.4,56.4,125.8,125.8,125.8
		c16.9,0,30.6-13.7,30.6-30.6S247.8,292,230.9,292z"/>
	<path opacity="0.8" fill="#535353" stroke="#000000" stroke-width="14" stroke-miterlimit="10" enable-background="new    " d="
		M522.6,443.3l-86.4-93.5c-27.7,37.5-62.4,69.4-101.9,94.1l86.4,93.5c26,28.2,69.9,29.9,98,3.9C546.8,515.3,548.6,471.5,522.6,443.3
		z"/>
</g>
</svg>
