<?xml version="1.0" encoding="utf-8"?>
<svg version="1.1" id="btn_arrow" preserveAspectRatio="none" xmlns="http://www.w3.org/2000/svg" xmlns:xlink="http://www.w3.org/1999/xlink" x="0px" y="0px"
	 width="143.5px" height="177.2px" viewBox="0 0 143.5 177.2" enable-background="new 0 0 143.5 177.2" xml:space="preserve">
<path id="path-1_30_" d="M78.8,177.2c-4.7,0-9-3.4-11.3-9.1c-2.7-6.9-1.8-15.3,2.2-20.9l39.6-55.3c1.7-2.4,1.7-6.1,0.1-8.4l-39.5-53
	c-4-5.4-4.9-13.9-2.3-20.7V9.7c2.3-5.9,6.7-9.5,11.5-9.6c3.4,0,6.6,1.7,9,5L139.6,74c5.2,6.9,5.2,18.4,0,25.6L88,171.7
	C85.5,175.2,82.2,177,78.8,177.2z M73.2,13.6v0.1c-1.4,3.6-1,8,1.1,10.8l39.5,52.9c4.1,5.5,4.1,14.7,0,20.4l-39.6,55.4
	c-2.1,2.9-2.6,7.4-1.2,10.9c1.2,2.9,3.3,4.6,5.7,4.6c1.8,0,3.6-1,4.9-2.9l51.6-72.1c2.8-3.9,2.8-10,0.1-13.6l-51.5-69
	c-1.2-1.6-2.8-2.5-4.6-2.5C76.7,8.6,74.4,10.5,73.2,13.6z"/>
<g opacity="0.6">
	<path fill="#575757" d="M115.2,87.2l-43.8,59c-3.9,5.8-3.9,15.3,0,21.1s10.3,5.8,14.2,0l51-68.5c2.1-3.1,3.1-7.4,2.9-11.5
		c0.2-4.1-0.8-8.3-2.9-11.5l-51-68.5c-3.9-5.8-10.3-5.8-14.2,0c-3.9,5.8-3.9,15.2,0,21.1L115.2,87.2z"/>
</g>
<path id="path-1_1_" d="M12.8,177.2c-4.7,0-9-3.4-11.3-9.1c-2.7-6.9-1.8-15.3,2.2-20.9l39.6-55.3c1.7-2.4,1.7-6.1,0.1-8.4L3.9,30.6
	c-4-5.4-4.9-13.9-2.3-20.7V9.7C3.9,3.8,8.3,0.1,13.2,0c3.4,0,6.6,1.7,9,5l51.5,68.9c5.2,6.9,5.2,18.4,0,25.6l-51.6,72.1
	C19.5,175.2,16.2,177,12.8,177.2z M7.2,13.6v0.1c-1.4,3.6-1,8,1.1,10.8l39.5,52.9c4.1,5.5,4.1,14.7,0,20.4L8.1,153
	c-2.1,2.9-2.6,7.4-1.2,10.9c1.2,2.9,3.3,4.6,5.7,4.6c1.8,0,3.6-1,4.9-2.9l51.6-72.1c2.8-3.9,2.8-10,0.1-13.6L17.8,11
	c-1.2-1.6-2.8-2.5-4.6-2.5C10.7,8.6,8.4,10.5,7.2,13.6z"/>
<g opacity="0.6">
	<path fill="#575757" d="M50.2,88.2L6.3,147.1c-3.9,5.8-3.9,15.3,0,21.1s10.3,5.8,14.2,0l51-68.5c2.1-3.1,3.1-7.4,2.9-11.5
		c0.2-4-0.8-8.3-2.9-11.5l-51-68.5c-3.9-5.8-10.3-5.8-14.2,0c-3.9,5.8-3.9,15.3,0,21.1L50.2,88.2z"/>
</g>
</svg>
