<?xml version="1.0" encoding="utf-8"?>
<svg version="1.1" id="btn_zoom" preserveAspectRatio="none" xmlns="http://www.w3.org/2000/svg" xmlns:xlink="http://www.w3.org/1999/xlink" x="0px" y="0px"
	 width="533px" height="552px" viewBox="0 0 533 552" enable-background="new 0 0 533 552" xml:space="preserve">
<g>
	
		<linearGradient id="SVGID_1_" gradientUnits="userSpaceOnUse" x1="216.85" y1="118.3" x2="216.85" y2="552" gradientTransform="matrix(1 0 0 -1 0 552)">
		<stop  offset="0" style="stop-color:#6E6E6E"/>
		<stop  offset="1" style="stop-color:#C6C6C6"/>
	</linearGradient>
	<path fill="url(#SVGID_1_)" d="M216.9,433.7c57.9,0,112.4-22.6,153.3-63.5c41-41,63.5-95.4,63.5-153.3C433.7,97.3,336.5,0,216.9,0
		S0,97.3,0,216.9S97.3,433.7,216.9,433.7z M70.3,216.9C70.3,136,136,70.3,216.9,70.3c80.8,0,146.6,65.8,146.6,146.6
		c0,39.1-15.3,75.9-43,103.6s-64.5,43-103.6,43C136,363.5,70.3,297.7,70.3,216.9z"/>
	
		<linearGradient id="SVGID_2_" gradientUnits="userSpaceOnUse" x1="217.5021" y1="198.8015" x2="121.925" y2="364.3459" gradientTransform="matrix(1 0 0 -1 0 552)">
		<stop  offset="0" style="stop-color:#818181"/>
		<stop  offset="1" style="stop-color:#A4A4A4"/>
	</linearGradient>
	<path fill="url(#SVGID_2_)" d="M222.9,284.3c-35.6,0-64.6-29-64.6-64.6c0-16.9-13.7-30.6-30.6-30.6S97,202.7,97,219.6
		c0,69.4,56.4,125.8,125.8,125.8c16.9,0,30.6-13.7,30.6-30.6S239.8,284.3,222.9,284.3z"/>
	
		<linearGradient id="SVGID_3_" gradientUnits="userSpaceOnUse" x1="429.6469" y1="-2.925257e-02" x2="429.6469" y2="209.9" gradientTransform="matrix(1 0 0 -1 0 552)">
		<stop  offset="0" style="stop-color:#535353"/>
		<stop  offset="1" style="stop-color:#7C7C7C"/>
	</linearGradient>
	<path fill="url(#SVGID_3_)" d="M514.6,435.6l-86.4-93.5c-27.7,37.5-62.4,69.4-101.9,94.1l86.4,93.5c26,28.2,69.9,29.9,98,3.9
		C538.8,507.6,540.6,463.8,514.6,435.6z"/>
</g>
</svg>
