<?xml version="1.0" encoding="utf-8"?>
<!DOCTYPE svg PUBLIC "-//W3C//DTD SVG 1.1//EN" "http://www.w3.org/Graphics/SVG/1.1/DTD/svg11.dtd">
<svg version="1.1" id="cross" preserveAspectRatio="none" xmlns="http://www.w3.org/2000/svg" xmlns:xlink="http://www.w3.org/1999/xlink" x="0px" y="0px"
	 width="216.7px" height="216.6px" viewBox="0 0 216.7 216.6" enable-background="new 0 0 216.7 216.6" xml:space="preserve">
<g>
	<path fill="none" d="M109.9,8c56.3,0,101.7,45.6,101.7,101.7c0,56.3-45.6,101.7-101.7,101.7S8.1,165.9,8.1,109.7
		C8,53.6,53.6,8,109.9,8z M196.3,109.9c0-47.6-38.6-86.2-86.2-86.2s-86.2,38.6-86.2,86.2s38.6,86.2,86.2,86.2
		S196.3,157.6,196.3,109.9z"/>
	<circle fill="none" cx="110.1" cy="109.9" r="86.2"/>
</g>
<path fill="none" stroke="#000000" stroke-width="10" stroke-linecap="round" stroke-miterlimit="10" d="M5.2,108.3
	C5.2,51.4,51.4,5.2,108.4,5.2s103.2,46.2,103.2,103.2s-46.2,103.2-103.2,103.2C51.4,211.5,5.2,165.3,5.2,108.3z"/>
<circle fill="none" stroke="#000000" stroke-width="9" stroke-linecap="round" stroke-miterlimit="10" cx="108.4" cy="108.3" r="86.2"/>
<circle opacity="0.44" fill="none" stroke="#000000" stroke-width="14" stroke-linecap="round" stroke-miterlimit="10" enable-background="new    " cx="108.4" cy="108.3" r="91.5"/>
<g opacity="0.25">
	<g id="cross_1">
		<g>
			<path d="M124.7,109.7l30.5-30.5c3.9-3.9,3.9-10.3,0-14.3c-3.9-3.9-10.3-3.9-14.3,0l-30.5,30.6L79.9,64.9C76,61,69.6,61,65.6,64.9
				c-3.9,3.9-3.9,10.3,0,14.3l30.5,30.5l-30.5,30.5c-3.9,3.9-3.9,10.3,0,14.3c3.9,3.9,10.3,3.9,14.3,0l30.5-30.5l30.5,30.5
				c3.9,3.9,10.3,3.9,14.3,0c3.9-3.9,3.9-10.3,0-14.3L124.7,109.7z"/>
		</g>
	</g>
</g>
<g>
	<g id="cross_2">
		<g>
			<path d="M132.4,108.8L156,85.1c6.5-6.5,6.5-17.1,0-23.7c-6.5-6.5-17.1-6.5-23.7,0l-23.7,23.7L85.1,61.5C78.6,55,68,55,61.4,61.5
				s-6.5,17.1,0,23.7l23.7,23.7l-23.7,23.7c-6.5,6.5-6.5,17.1,0,23.7c6.5,6.5,17.1,6.5,23.7,0l23.7-23.7l23.7,23.7
				c6.5,6.5,17.1,6.5,23.7,0c6.5-6.5,6.5-17.1,0-23.7L132.4,108.8z M150.1,150.2c-3.3,3.3-8.6,3.3-11.8,0l-29.6-29.6l-29.6,29.6
				c-3.3,3.3-8.6,3.3-11.8,0c-3.3-3.3-3.3-8.6,0-11.8l29.6-29.6L67.3,79.2c-3.3-3.3-3.3-8.6,0-11.8c3.3-3.3,8.6-3.3,11.8,0L108.7,97
				l29.6-29.6c3.3-3.3,8.6-3.3,11.8,0c3.3,3.3,3.3,8.6,0,11.8l-29.6,29.6l29.6,29.6C153.4,141.6,153.4,146.9,150.1,150.2z"/>
		</g>
	</g>
</g>
</svg>
