<?xml version="1.0" encoding="utf-8"?>
<svg version="1.1" id="mobile_bottom_menu_arrow" preserveAspectRatio="none" xmlns="http://www.w3.org/2000/svg" xmlns:xlink="http://www.w3.org/1999/xlink"
	 x="0px" y="0px" width="512px" height="512px" viewBox="0 0 512 512" enable-background="new 0 0 512 512" xml:space="preserve">
<g transform="translate(0.000000,512.000000) scale(0.100000,-0.100000)" opacity="0.5">
	<path stroke="#000000" stroke-miterlimit="10" d="M5105.5,2683.8c-40,119-124,216-234,268c-64,30-74,32-183,32
		c-203,0-99,88-1187-999l-943-941l-942,941c-1089,1087-985,999-1188,999c-109,0-119-2-183-32c-89-42-168-121-210-210
		c-30-64-32-74-32-183c0-206-109-80,1183-1372s1166-1183,1372-1183s80-109,1372,1183c1072,1072,1118,1120,1150,1187
		c29,62,33,81,35,170C5117.5,2606.8,5113.5,2658.8,5105.5,2683.8z"/>
	<path stroke="#000000" stroke-miterlimit="10" d="M4895.5,4803.8c-49,147-161,254-316,301c-25,8-84,14-131,14
		c-144,0-232-38-360-156c-47-43-384-362-749-709c-365-346-668-630-672-630s-334,310-735,690c-400,379-741,700-758,713
		c-85,64-172,92-287,92c-137,0-228-34-322-120c-94-85-139-189-139-316c0-100,37-205,96-273c27-31,1741-1659,1815-1724
		c102-89,203-129,331-129c137,0,237,43,357,154c321,297,1792,1703,1810,1730c50,76,67,129,70,228
		C4907.5,4728.8,4903.5,4778.8,4895.5,4803.8z"/>
</g>
</svg>
