<?xml version="1.0" encoding="utf-8"?>
<svg version="1.1" id="mobile_bottom_menu_links_arrow" preserveAspectRatio="none"
	 xmlns="http://www.w3.org/2000/svg" xmlns:xlink="http://www.w3.org/1999/xlink" x="0px" y="0px" width="281.3px" height="400px"
	 viewBox="0 0 281.3 400" enable-background="new 0 0 281.3 400" xml:space="preserve">
<g transform="translate(0.000000,400.000000) scale(0.100000,-0.100000)" opacity="0.6">
	<path d="M1290.9,3986c-103-33-180-105-231-213l-27-58l-3-652l-3-653l-217,185c-124,106-240,197-272,213c-49,24-66,27-160,27
		c-95,0-111-3-162-28c-79-39-143-104-181-185c-29-60-32-77-32-158c0-84,2-95,38-167l38-77l550-468c303-257,568-477,589-490
		c111-67,269-67,380,0c67,40,1125,945,1152,985c46,70,63,131,63,223c0,74-4,93-32,152c-38,81-102,146-181,185c-51,25-67,28-162,28
		c-94,0-111-3-160-27c-32-16-148-107-272-213l-217-185l-3,653l-3,652l-32,67c-39,82-100,145-178,183c-49,25-73,30-149,32
		C1365.9,3999,1316.9,3995,1290.9,3986z"/>
	<path d="M277.9,1615c-181-51-294-216-276-404c7-83,49-171,108-228c24-23,277-240,563-483c340-288,539-450,575-468
		c49-24,66-27,160-27s111,3,160,27c36,18,235,180,575,468c286,243,539,460,563,483s57,71,75,107c29,58,32,73,32,155
		c-1,124-27,189-109,271c-81,81-147,108-266,108c-147,0-144,1-610-394c-226-193-415-350-420-350c-4,0-194,157-420,350
		c-450,381-459,387-590,396C357.9,1628,311.9,1624,277.9,1615z"/>
</g>
</svg>
