<?xml version="1.0" encoding="utf-8"?>
<svg version="1.1" id="right_arrows" preserveAspectRatio="none" xmlns="http://www.w3.org/2000/svg" xmlns:xlink="http://www.w3.org/1999/xlink" x="0px" y="0px"
	 width="334.8px" height="196px" viewBox="0 0 334.8 196" enable-background="new 0 0 334.8 196" xml:space="preserve">
<g opacity="0.4">
	<path d="M108.6,86.8L24.6,4.2c-2.6-2.5-6-3.9-9.5-3.8s-7,1.5-9.5,4c-2.5,2.6-3.9,6-3.9,9.5c0,3.6,1.5,6.9,4,9.5l74.5,73.2
		L4.6,173.5c-5.2,5.3-5.1,13.8,0.2,19c2.6,2.5,5.9,3.9,9.5,3.9c3.6,0,7-1.5,9.5-4l85-86.5C114,100.5,113.9,92,108.6,86.8z
		 M101.1,98.3l-85,86.5c-0.5,0.5-1.2,0.8-1.9,0.8c-0.7,0-1.4-0.3-1.9-0.8c-1.1-1-1.1-2.7,0-3.8l83.2-84.6L13.3,15.7
		c-1.1-1-1.1-2.7,0-3.8c1-1.1,2.7-1.1,3.8,0l84.1,82.6C102.1,95.5,102.2,97.3,101.1,98.3z"/>
	<path d="M219.8,87.3L136.4,3.9c-2.5-2.5-5.9-3.9-9.5-3.9c-3.6,0-7,1.4-9.5,3.9c-2.6,2.5-3.9,5.9-3.9,9.5c0,3.6,1.4,7,3.9,9.5
		l73.8,73.8L115,173.1c-5.3,5.2-5.3,13.8,0,19c2.5,2.6,5.9,3.9,9.5,3.9c3.6,0,7-1.4,9.5-3.9l85.8-85.8C225,101,225,92.5,219.8,87.3
		z M212.2,98.7l-85.8,85.8c-0.5,0.5-1.2,0.8-1.9,0.8c-0.7,0-1.4-0.3-1.9-0.8c-1.1-1-1.1-2.8,0-3.8l83.9-83.9L125,15.3
		c-1.1-1.1-1.1-2.8,0-3.8c1-1.1,2.8-1.1,3.8,0l83.3,83.3C213.2,95.9,213.2,97.6,212.2,98.7z"/>
	<path d="M247.5,3.9C244.9,1.4,241.6,0,238,0c-3.6,0-7,1.4-9.5,3.9c-2.5,2.5-3.9,5.9-3.9,9.5c0,3.6,1.4,7,3.9,9.5l73.8,73.8
		l-76.3,76.3c-5.2,5.2-5.2,13.8,0,19c2.5,2.6,5.9,3.9,9.5,3.9c3.6,0,7-1.4,9.5-3.9l85.8-85.8c5.2-5.2,5.2-13.8,0-19L247.5,3.9z
		 M323.3,98.7l-85.8,85.8c-0.5,0.5-1.2,0.8-1.9,0.8c-0.7,0-1.4-0.3-1.9-0.8c-1.1-1-1.1-2.8,0-3.8l83.9-83.9l-81.4-81.4
		c-1-1.1-1-2.8,0-3.8c1-1.1,2.8-1.1,3.8,0l83.4,83.3C324.3,95.9,324.3,97.6,323.3,98.7z"/>
</g>
</svg>
